# xmcd CD database file
#
# Track frame offsets:
#	150
#	21120
#	45899
#	66303
#	84090
#	108623
#	127259
#	151950
#	167478
#	184893
#	203440
#	222793
#
# Disc length: 3191 seconds
#
# Revision: 6
# Processed by: cddbd v1.5.1PL0 Copyright (c) Steve Scherf et al.
# Submitted via: CDex 1.60beta1
#
DISCID=980c750c
DTITLE=Pe'z -  九月の空 －KUGATSU NO SOLA－ 
DYEAR=2002
DGENRE=Jazz
TTITLE0=Ready!～黄色いおうちのエレベーターは緑色～ 
TTITLE1=Mosquito-38
TTITLE2=Akatsuki
TTITLE3=Let It Go
TTITLE4=人が夢を見るといふ事 ～Black Skyline～
TTITLE5=I'm A Slugger
TTITLE6=Peach ?Ashihara Story? (Ex.004)
TTITLE7=Song For My Buffalo
TTITLE8=Across You
TTITLE9=Spirit
TTITLE10=Amny
TTITLE11=Hale No Sola Sita ～LA Yellow Samba～
EXTD=YEAR: 2002
EXTT0=
EXTT1=
EXTT2=
EXTT3=
EXTT4=
EXTT5=
EXTT6=
EXTT7=
EXTT8=
EXTT9=
EXTT10=
EXTT11=
PLAYORDER=
